<svg xmlns="http://www.w3.org/2000/svg" xmlns:xlink="http://www.w3.org/1999/xlink" width="400" zoomAndPan="magnify" viewBox="0 0 300 95.999999" height="128" preserveAspectRatio="xMidYMid meet" version="1.0"><defs><g/><clipPath id="da28f6d4d1"><path d="M 5.515625 4.042969 L 61.765625 4.042969 L 61.765625 61.792969 L 5.515625 61.792969 Z M 5.515625 4.042969 " clip-rule="nonzero"/></clipPath><clipPath id="dade014a0e"><path d="M 230.777344 39.863281 L 298.277344 39.863281 L 298.277344 88.613281 L 230.777344 88.613281 Z M 230.777344 39.863281 " clip-rule="nonzero"/></clipPath></defs><rect x="-30" width="360" fill="#ffffff" y="-9.6" height="115.199999" fill-opacity="1"/><rect x="-30" width="360" fill="#000000" y="-9.6" height="115.199999" fill-opacity="1"/><g fill="#ffffff" fill-opacity="1"><g transform="translate(119.270071, 91.164417)"><g><path d="M 1.96875 -15.34375 C 2.488281 -18.363281 3.613281 -21.054688 5.34375 -23.421875 C 7.070312 -25.796875 9.210938 -27.644531 11.765625 -28.96875 C 14.328125 -30.289062 17.085938 -30.953125 20.046875 -30.953125 C 23.679688 -30.953125 26.625 -29.992188 28.875 -28.078125 C 31.132812 -26.160156 32.40625 -23.546875 32.6875 -20.234375 L 24.5 -20.234375 C 24.125 -21.484375 23.429688 -22.429688 22.421875 -23.078125 C 21.421875 -23.734375 20.195312 -24.0625 18.75 -24.0625 C 16.445312 -24.0625 14.453125 -23.269531 12.765625 -21.6875 C 11.085938 -20.101562 10.015625 -17.988281 9.546875 -15.34375 C 9.398438 -14.53125 9.328125 -13.816406 9.328125 -13.203125 C 9.328125 -11.171875 9.894531 -9.554688 11.03125 -8.359375 C 12.164062 -7.171875 13.71875 -6.578125 15.6875 -6.578125 C 17.113281 -6.578125 18.441406 -6.910156 19.671875 -7.578125 C 20.910156 -8.253906 21.953125 -9.21875 22.796875 -10.46875 L 31 -10.46875 C 29.539062 -7.15625 27.34375 -4.546875 24.40625 -2.640625 C 21.476562 -0.734375 18.195312 0.21875 14.5625 0.21875 C 11.945312 0.21875 9.664062 -0.285156 7.71875 -1.296875 C 5.769531 -2.316406 4.269531 -3.753906 3.21875 -5.609375 C 2.175781 -7.472656 1.65625 -9.644531 1.65625 -12.125 C 1.65625 -13.226562 1.757812 -14.300781 1.96875 -15.34375 Z M 1.96875 -15.34375 "/></g></g></g><g fill="#ffffff" fill-opacity="1"><g transform="translate(152.479531, 91.164417)"><g><path d="M 20.484375 -5.40625 L 9.0625 -5.40625 L 6.28125 0 L -1.53125 0 L 14.953125 -30.609375 L 23.578125 -30.609375 L 29.25 0 L 21.359375 0 Z M 19.609375 -11.078125 L 17.828125 -22.40625 L 11.984375 -11.078125 Z M 19.609375 -11.078125 "/></g></g></g><g fill="#ffffff" fill-opacity="1"><g transform="translate(184.599432, 91.164417)"><g><path d="M 18.390625 -30.609375 C 21.554688 -30.609375 23.96875 -29.882812 25.625 -28.4375 C 27.289062 -27 28.125 -25.132812 28.125 -22.84375 C 28.125 -22.175781 28.0625 -21.550781 27.9375 -20.96875 C 27.59375 -18.9375 26.707031 -17.117188 25.28125 -15.515625 C 23.851562 -13.921875 21.953125 -12.789062 19.578125 -12.125 L 24.5 0 L 16.09375 0 L 11.765625 -11.546875 L 9.984375 -11.546875 L 7.9375 0 L 0.484375 0 L 5.890625 -30.609375 Z M 20.3125 -20.65625 C 20.375 -21.125 20.40625 -21.429688 20.40625 -21.578125 C 20.40625 -22.503906 20.101562 -23.222656 19.5 -23.734375 C 18.90625 -24.242188 18.03125 -24.5 16.875 -24.5 L 12.25 -24.5 L 10.890625 -16.828125 L 15.515625 -16.828125 C 16.878906 -16.828125 17.960938 -17.160156 18.765625 -17.828125 C 19.566406 -18.492188 20.082031 -19.4375 20.3125 -20.65625 Z M 20.3125 -20.65625 "/></g></g></g><g fill="#ffffff" fill-opacity="1"><g transform="translate(213.014871, 91.164417)"><g><path d="M 27.90625 -30.609375 L 26.890625 -24.71875 L 18.75 -24.71875 L 14.390625 0 L 6.9375 0 L 11.296875 -24.71875 L 3.1875 -24.71875 L 4.234375 -30.609375 Z M 27.90625 -30.609375 "/></g></g></g><g fill="#ffffff" fill-opacity="1"><g transform="translate(62.009463, 57.542332)"><g><path d="M 13.40625 -26.75 C 14.550781 -28.507812 15.984375 -29.894531 17.703125 -30.90625 C 19.429688 -31.925781 21.351562 -32.4375 23.46875 -32.4375 L 23.46875 -22.03125 L 20.765625 -22.03125 C 18.304688 -22.03125 16.460938 -21.5 15.234375 -20.4375 C 14.015625 -19.382812 13.40625 -17.535156 13.40625 -14.890625 L 13.40625 0 L 3.5625 0 L 3.5625 -32.09375 L 13.40625 -32.09375 Z M 13.40625 -26.75 "/></g></g></g><g fill="#ffffff" fill-opacity="1"><g transform="translate(86.626173, 57.542332)"><g><path d="M 13.40625 -27.546875 C 14.320312 -29.046875 15.640625 -30.253906 17.359375 -31.171875 C 19.085938 -32.085938 21.066406 -32.546875 23.296875 -32.546875 C 25.941406 -32.546875 28.335938 -31.875 30.484375 -30.53125 C 32.628906 -29.195312 34.320312 -27.28125 35.5625 -24.78125 C 36.8125 -22.289062 37.4375 -19.398438 37.4375 -16.109375 C 37.4375 -12.804688 36.8125 -9.898438 35.5625 -7.390625 C 34.320312 -4.878906 32.628906 -2.941406 30.484375 -1.578125 C 28.335938 -0.222656 25.941406 0.453125 23.296875 0.453125 C 21.035156 0.453125 19.0625 0.00390625 17.375 -0.890625 C 15.6875 -1.796875 14.363281 -2.992188 13.40625 -4.484375 L 13.40625 0 L 3.5625 0 L 3.5625 -42.5625 L 13.40625 -42.5625 Z M 27.4375 -16.109375 C 27.4375 -18.554688 26.753906 -20.476562 25.390625 -21.875 C 24.023438 -23.28125 22.347656 -23.984375 20.359375 -23.984375 C 18.398438 -23.984375 16.738281 -23.273438 15.375 -21.859375 C 14.019531 -20.441406 13.34375 -18.503906 13.34375 -16.046875 C 13.34375 -13.585938 14.019531 -11.648438 15.375 -10.234375 C 16.738281 -8.816406 18.398438 -8.109375 20.359375 -8.109375 C 22.316406 -8.109375 23.984375 -8.828125 25.359375 -10.265625 C 26.742188 -11.703125 27.4375 -13.648438 27.4375 -16.109375 Z M 27.4375 -16.109375 "/></g></g></g><g fill="#ffffff" fill-opacity="1"><g transform="translate(125.679317, 57.542332)"><g><path d="M 1.609375 -16.109375 C 1.609375 -19.398438 2.226562 -22.289062 3.46875 -24.78125 C 4.71875 -27.28125 6.414062 -29.195312 8.5625 -30.53125 C 10.71875 -31.875 13.117188 -32.546875 15.765625 -32.546875 C 18.023438 -32.546875 20.003906 -32.085938 21.703125 -31.171875 C 23.410156 -30.253906 24.726562 -29.046875 25.65625 -27.546875 L 25.65625 -32.09375 L 35.484375 -32.09375 L 35.484375 0 L 25.65625 0 L 25.65625 -4.546875 C 24.695312 -3.046875 23.363281 -1.835938 21.65625 -0.921875 C 19.945312 -0.00390625 17.960938 0.453125 15.703125 0.453125 C 13.097656 0.453125 10.71875 -0.222656 8.5625 -1.578125 C 6.414062 -2.941406 4.71875 -4.878906 3.46875 -7.390625 C 2.226562 -9.898438 1.609375 -12.804688 1.609375 -16.109375 Z M 25.65625 -16.046875 C 25.65625 -18.503906 24.972656 -20.441406 23.609375 -21.859375 C 22.242188 -23.273438 20.585938 -23.984375 18.640625 -23.984375 C 16.679688 -23.984375 15.019531 -23.28125 13.65625 -21.875 C 12.300781 -20.476562 11.625 -18.554688 11.625 -16.109375 C 11.625 -13.648438 12.300781 -11.703125 13.65625 -10.265625 C 15.019531 -8.828125 16.679688 -8.109375 18.640625 -8.109375 C 20.585938 -8.109375 22.242188 -8.816406 23.609375 -10.234375 C 24.972656 -11.648438 25.65625 -13.585938 25.65625 -16.046875 Z M 25.65625 -16.046875 "/></g></g></g><g fill="#ffffff" fill-opacity="1"><g transform="translate(164.732462, 57.542332)"><g><path d="M 23.125 -32.4375 C 26.875 -32.4375 29.867188 -31.21875 32.109375 -28.78125 C 34.359375 -26.351562 35.484375 -23.007812 35.484375 -18.75 L 35.484375 0 L 25.703125 0 L 25.703125 -17.421875 C 25.703125 -19.566406 25.144531 -21.234375 24.03125 -22.421875 C 22.925781 -23.617188 21.4375 -24.21875 19.5625 -24.21875 C 17.675781 -24.21875 16.175781 -23.617188 15.0625 -22.421875 C 13.957031 -21.234375 13.40625 -19.566406 13.40625 -17.421875 L 13.40625 0 L 3.5625 0 L 3.5625 -32.09375 L 13.40625 -32.09375 L 13.40625 -27.84375 C 14.394531 -29.257812 15.734375 -30.378906 17.421875 -31.203125 C 19.109375 -32.023438 21.007812 -32.4375 23.125 -32.4375 Z M 23.125 -32.4375 "/></g></g></g><g clip-path="url(#da28f6d4d1)"><path fill="#ffffff" d="M 48.574219 4.933594 L 35.136719 24.640625 L 41.398438 24.640625 C 41.53125 24.640625 41.664062 24.667969 41.789062 24.71875 C 41.914062 24.769531 42.027344 24.84375 42.121094 24.941406 C 42.21875 25.035156 42.292969 25.148438 42.34375 25.273438 C 42.394531 25.398438 42.421875 25.53125 42.421875 25.664062 L 42.421875 36.941406 C 42.421875 37.75 42.34375 38.550781 42.1875 39.34375 C 42.027344 40.132812 41.792969 40.902344 41.484375 41.648438 C 41.175781 42.394531 40.796875 43.105469 40.347656 43.777344 C 39.898438 44.449219 39.390625 45.070312 38.820312 45.640625 C 38.246094 46.210938 37.625 46.722656 36.953125 47.171875 C 36.285156 47.621094 35.574219 48 34.828125 48.308594 C 34.082031 48.617188 33.3125 48.851562 32.519531 49.007812 C 31.726562 49.164062 30.929688 49.242188 30.121094 49.242188 C 29.3125 49.242188 28.511719 49.164062 27.71875 49.007812 C 26.929688 48.851562 26.160156 48.617188 25.414062 48.308594 C 24.667969 48 23.957031 47.621094 23.285156 47.171875 C 22.613281 46.722656 21.992188 46.210938 21.421875 45.640625 C 20.851562 45.070312 20.339844 44.449219 19.890625 43.777344 C 19.445312 43.105469 19.066406 42.394531 18.753906 41.648438 C 18.445312 40.902344 18.214844 40.132812 18.054688 39.34375 C 17.898438 38.550781 17.820312 37.75 17.820312 36.941406 L 17.820312 4.136719 L 5.515625 4.136719 L 5.515625 36.941406 C 5.515625 37.746094 5.558594 38.550781 5.636719 39.355469 C 5.714844 40.15625 5.832031 40.953125 5.992188 41.742188 C 6.148438 42.53125 6.34375 43.3125 6.578125 44.085938 C 6.8125 44.855469 7.082031 45.613281 7.390625 46.355469 C 7.699219 47.101562 8.042969 47.828125 8.421875 48.539062 C 8.800781 49.25 9.214844 49.941406 9.664062 50.609375 C 10.113281 51.28125 10.589844 51.925781 11.101562 52.550781 C 11.613281 53.171875 12.152344 53.769531 12.722656 54.339844 C 13.292969 54.910156 13.890625 55.449219 14.511719 55.960938 C 15.136719 56.472656 15.78125 56.949219 16.453125 57.398438 C 17.121094 57.847656 17.8125 58.261719 18.523438 58.640625 C 19.234375 59.019531 19.960938 59.363281 20.707031 59.671875 C 21.449219 59.980469 22.207031 60.25 22.980469 60.484375 C 23.75 60.71875 24.53125 60.914062 25.320312 61.074219 C 26.109375 61.230469 26.90625 61.347656 27.710938 61.425781 C 28.511719 61.503906 29.316406 61.546875 30.121094 61.546875 C 30.925781 61.546875 31.730469 61.503906 32.53125 61.425781 C 33.332031 61.347656 34.128906 61.230469 34.921875 61.074219 C 35.710938 60.914062 36.492188 60.71875 37.261719 60.484375 C 38.035156 60.25 38.792969 59.980469 39.535156 59.671875 C 40.28125 59.363281 41.007812 59.019531 41.71875 58.640625 C 42.429688 58.261719 43.121094 57.847656 43.789062 57.398438 C 44.460938 56.949219 45.105469 56.472656 45.726562 55.960938 C 46.351562 55.449219 46.949219 54.910156 47.515625 54.339844 C 48.085938 53.769531 48.628906 53.171875 49.140625 52.550781 C 49.648438 51.925781 50.128906 51.28125 50.578125 50.609375 C 51.023438 49.941406 51.4375 49.25 51.820312 48.539062 C 52.199219 47.828125 52.542969 47.101562 52.851562 46.355469 C 53.160156 45.613281 53.429688 44.855469 53.664062 44.085938 C 53.898438 43.3125 54.09375 42.53125 54.25 41.742188 C 54.40625 40.953125 54.527344 40.15625 54.605469 39.355469 C 54.683594 38.550781 54.722656 37.746094 54.722656 36.941406 L 54.722656 25.664062 C 54.722656 25.53125 54.75 25.398438 54.800781 25.273438 C 54.855469 25.148438 54.925781 25.035156 55.023438 24.941406 C 55.121094 24.84375 55.230469 24.769531 55.355469 24.71875 C 55.480469 24.667969 55.613281 24.640625 55.75 24.640625 L 62.011719 24.640625 Z M 48.574219 4.933594 " fill-opacity="1" fill-rule="nonzero"/></g><g clip-path="url(#dade014a0e)"><path fill="#fff200" d="M 282.804688 49.683594 C 280.785156 49.164062 278.804688 48.699219 276.859375 48.285156 C 277.121094 50 276.964844 51.855469 276.375 53.632812 C 279.265625 54.410156 282.085938 55.34375 284.789062 56.460938 C 286.277344 52.554688 286.625 47.132812 285.347656 39.863281 C 290.519531 40.59375 293.996094 41.925781 298.441406 44.773438 C 294.042969 43.441406 291.445312 42.972656 288.257812 42.773438 C 290.3125 61.039062 283.585938 68.914062 274.050781 70.222656 C 278.433594 73.996094 282.554688 79.21875 285.894531 85.984375 C 275.058594 70.375 243.957031 56.207031 240.746094 84.839844 C 239.003906 73.417969 243.394531 66.15625 250.300781 63.652344 C 241.105469 57.976562 233.222656 49.410156 230.804688 40.59375 C 251.136719 41.871094 266.507812 43.191406 282.804688 49.683594 Z M 274.980469 56.480469 C 273.359375 58.90625 270.734375 60.875 267.035156 61.636719 C 269.816406 60.398438 271.882812 58.273438 273.171875 55.886719 C 267.554688 54.09375 261.605469 52.75 255.316406 51.714844 C 256.621094 54.601562 258.347656 57.363281 260.492188 60.003906 C 257.136719 57.359375 254.453125 54.480469 252.628906 51.292969 C 250.132812 50.921875 247.585938 50.59375 244.984375 50.300781 C 247.335938 50.261719 249.71875 50.277344 252.117188 50.347656 C 251.269531 48.6875 250.652344 46.941406 250.285156 45.105469 C 245.96875 44.945312 241.757812 44.925781 237.59375 44.957031 C 246.792969 59.371094 273.914062 72.34375 283.074219 59.699219 C 280.457031 58.496094 277.761719 57.429688 274.980469 56.480469 Z M 274.300781 53.105469 C 274.816406 51.273438 274.898438 49.421875 274.527344 47.804688 C 266.964844 46.328125 259.910156 45.585938 253.140625 45.234375 C 253.542969 47.015625 254.089844 48.757812 254.777344 50.453125 C 261.34375 50.777344 267.976562 51.585938 274.300781 53.105469 Z M 290.382812 81.476562 C 292.347656 81.476562 293.941406 83.070312 293.941406 85.03125 C 293.941406 86.996094 292.347656 88.589844 290.382812 88.589844 C 288.417969 88.589844 286.828125 86.996094 286.828125 85.03125 C 286.828125 83.070312 288.417969 81.476562 290.382812 81.476562 Z M 245.398438 81.417969 C 247.363281 81.417969 248.957031 83.007812 248.957031 84.972656 C 248.957031 86.9375 247.363281 88.527344 245.398438 88.527344 C 243.433594 88.527344 241.84375 86.9375 241.84375 84.972656 C 241.84375 83.007812 243.433594 81.417969 245.398438 81.417969 Z M 245.398438 81.417969 " fill-opacity="1" fill-rule="evenodd"/></g></svg>